<svg width="92" height="67" viewBox="0 0 92 67" fill="none" xmlns="http://www.w3.org/2000/svg">
<g clip-path="url(#clip0_62_24441)">
<path fill-rule="evenodd" clip-rule="evenodd" d="M22.9556 62.7469L16.3104 25.3116L70.3615 15.7164L77.0066 53.1518L22.9556 62.7469ZM28.5466 31.2119C28.4534 30.6877 27.953 30.3379 27.4288 30.4313L24.5203 30.9476C23.996 31.0407 23.6465 31.5411 23.7397 32.0653C23.8226 32.5324 24.2291 32.8611 24.6877 32.8611C24.7436 32.8611 24.8003 32.8561 24.8574 32.8462L27.7659 32.3299C28.2899 32.2367 28.6395 31.7364 28.5466 31.2119ZM30.1522 40.258C30.0591 39.7338 29.5587 39.384 29.0345 39.4774L26.1267 39.9937C25.6025 40.0868 25.2529 40.5872 25.3461 41.1114C25.4291 41.5787 25.8358 41.9072 26.2942 41.9072C26.3501 41.9072 26.4067 41.9022 26.4638 41.8923L29.3716 41.376C29.8959 41.2826 30.2454 40.7822 30.1522 40.258ZM31.8983 50.2154C31.8052 49.6912 31.3048 49.3414 30.7806 49.4348L27.8728 49.951C27.3486 50.0442 26.999 50.5446 27.0922 51.0688C27.1751 51.5359 27.5818 51.8646 28.0402 51.8646C28.0961 51.8646 28.1528 51.8596 28.2099 51.8497L31.1177 51.3334C31.6419 51.2402 31.9915 50.7396 31.8983 50.2154ZM37.8431 29.5617C37.7499 29.0375 37.2498 28.6877 36.7253 28.7811L33.8168 29.2974C33.2926 29.3906 32.943 29.8909 33.0362 30.4151C33.1192 30.8822 33.5256 31.2109 33.9843 31.2109C34.0402 31.2109 34.0968 31.2059 34.1539 31.196L37.0625 30.6797C37.5864 30.5863 37.936 30.0859 37.8431 29.5617ZM39.4488 38.6076C39.3556 38.0834 38.8555 37.7336 38.331 37.827L35.4225 38.3435C34.8983 38.4366 34.5487 38.937 34.6419 39.4612C34.7249 39.9283 35.1313 40.257 35.5899 40.257C35.6458 40.257 35.7025 40.252 35.7596 40.2421L38.6682 39.7256C39.1924 39.6322 39.542 39.1318 39.4488 38.6076ZM41.5929 45.6582C41.1534 45.3578 40.5534 45.4706 40.253 45.9101L39.1467 47.5295L37.5507 46.3901C37.1174 46.0805 36.5152 46.1812 36.2058 46.6144C35.8965 47.048 35.9969 47.65 36.4302 47.9593L38.0587 49.1217L36.9301 50.7739C36.6297 51.2134 36.7427 51.8134 37.1825 52.1138C37.3487 52.2275 37.538 52.282 37.7253 52.282C38.0331 52.282 38.3355 52.1349 38.5223 51.8616L39.6287 50.2425L41.2249 51.3821C41.3946 51.5033 41.5904 51.5615 41.7842 51.5615C42.085 51.5615 42.3814 51.4211 42.5697 51.1575C42.8791 50.724 42.7784 50.122 42.3451 49.8127L40.7166 48.6502L41.8453 46.9983C42.1451 46.5585 42.0324 45.9588 41.5929 45.6582ZM47.1389 27.9121C47.046 27.3878 46.5456 27.0385 46.0214 27.1312L43.1128 27.647C42.5886 27.7399 42.2391 28.2403 42.332 28.7647C42.415 29.232 42.8214 29.5605 43.28 29.5605C43.3359 29.5605 43.3926 29.5555 43.4495 29.5456L46.358 29.0298C46.8822 28.9366 47.232 28.4363 47.1389 27.9121ZM48.7446 36.9572C48.6514 36.4329 48.151 36.0831 47.6268 36.1766L44.7185 36.6931C44.1943 36.7862 43.8448 37.2866 43.9379 37.8108C44.0209 38.2779 44.4274 38.6066 44.886 38.6066C44.9419 38.6066 44.9985 38.6016 45.0557 38.5917L47.964 38.0752C48.4882 37.982 48.8377 37.4814 48.7446 36.9572ZM50.989 45.8472L48.0805 46.3638C47.5563 46.4569 47.2067 46.9573 47.2999 47.4815C47.3828 47.9488 47.7893 48.2773 48.2479 48.2773C48.3038 48.2773 48.3605 48.2723 48.4176 48.2624L51.3262 47.7459C51.8504 47.6527 52.1999 47.1523 52.1068 46.6281C52.0138 46.1036 51.5135 45.7541 50.989 45.8472ZM56.4349 26.2614C56.3417 25.7372 55.8416 25.3874 55.3172 25.4808L52.4086 25.9971C51.8844 26.0902 51.5349 26.5906 51.628 27.1148C51.711 27.5819 52.1175 27.9106 52.5761 27.9106C52.632 27.9106 52.6886 27.9056 52.7458 27.8957L55.6543 27.3794C56.1785 27.2862 56.5281 26.7856 56.4349 26.2614ZM58.0406 35.307C57.9477 34.7828 57.4471 34.433 56.9229 34.5264L54.0143 35.0429C53.4901 35.1361 53.1405 35.6364 53.2337 36.1607C53.3167 36.6277 53.7231 36.9564 54.1818 36.9564C54.2377 36.9564 54.2943 36.9515 54.3515 36.9415L57.2597 36.425C57.7842 36.3316 58.1338 35.831 58.0406 35.307ZM60.6498 45.1114C60.5566 44.5871 60.0565 44.2376 59.532 44.3307L56.6242 44.847C56.1 44.9402 55.7504 45.4405 55.8436 45.9648C55.9266 46.4321 56.3331 46.7605 56.7917 46.7605C56.8476 46.7605 56.9042 46.7556 56.9614 46.7456L59.8692 46.2294C60.3934 46.1359 60.7427 45.6356 60.6498 45.1114ZM65.731 24.6112C65.6378 24.087 65.1374 23.7375 64.6132 23.8306L61.7054 24.3471C61.1812 24.4403 60.8316 24.9407 60.9248 25.4649C61.0078 25.9322 61.4142 26.2604 61.8729 26.2604C61.9288 26.2604 61.9854 26.2554 62.0425 26.2455L64.9503 25.729C65.4746 25.6358 65.8241 25.1352 65.731 24.6112ZM67.3366 33.6566C67.2435 33.1324 66.7434 32.7831 66.2189 32.876L63.3111 33.3922C62.7869 33.4854 62.4373 33.9858 62.5305 34.51C62.6135 34.9771 63.0199 35.3058 63.4786 35.3058C63.5345 35.3058 63.5911 35.3008 63.6482 35.2909L66.556 34.7743C67.0803 34.6812 67.4298 34.1808 67.3366 33.6566ZM69.1041 43.6112C69.0109 43.087 68.5108 42.7375 67.9863 42.8304L65.0778 43.3462C64.5536 43.4391 64.204 43.9394 64.2969 44.4637C64.3799 44.931 64.7864 45.2594 65.245 45.2594C65.3009 45.2594 65.3575 45.2545 65.4144 45.2445L68.323 44.7288C68.8472 44.6358 69.197 44.1355 69.1041 43.6112Z" fill="#20C997"/>
<path fill-rule="evenodd" clip-rule="evenodd" d="M26.0538 14.6653L24.5389 6.13858L21.3375 6.70736L22.8524 15.2341L26.0538 14.6653Z" fill="#20C997"/>
<path fill-rule="evenodd" clip-rule="evenodd" d="M21.5553 17.1632C21.765 17.3098 22.0259 17.3667 22.2758 17.3219L27.3744 16.4164C27.8986 16.3232 28.2481 15.8228 28.155 15.2986L27.4226 11.1739L55.0612 6.26742L55.7937 10.3923C55.8843 10.9195 56.3996 11.2679 56.9114 11.1729L62.0095 10.2679C62.2612 10.2231 62.485 10.0803 62.6313 9.8706C62.7777 9.66091 62.8351 9.40179 62.7901 9.15011L62.0577 5.02544L68.2675 3.9231L70.0243 13.8181L15.9733 23.4133L14.2165 13.5183L20.4259 12.4159L21.1583 16.5413C21.203 16.793 21.3459 17.0168 21.5553 17.1632Z" fill="#20C997"/>
<path fill-rule="evenodd" clip-rule="evenodd" d="M75.5665 58.1842L75.08 55.4463L25.4584 64.2623L25.9448 67.0002L75.5665 58.1842Z" fill="#20C997"/>
<path fill-rule="evenodd" clip-rule="evenodd" d="M60.7021 8.52747L59.1872 0.000282782L55.9863 0.568971L57.5012 9.09615L60.7021 8.52747Z" fill="#20C997"/>
<path fill-rule="evenodd" clip-rule="evenodd" d="M84.3297 28.711C85.2701 28.4936 89.3182 27.6166 90.3925 27.3625C90.911 27.2397 91.43 27.5605 91.5527 28.0787C91.6752 28.597 91.3547 29.1162 90.8364 29.239C89.7445 29.4974 85.6914 30.3754 84.764 30.5898C84.6909 30.6067 84.6179 30.6149 84.5461 30.6149C84.1073 30.6149 83.7106 30.3132 83.6077 29.8675C83.4877 29.3488 83.8109 28.831 84.3297 28.711Z" fill="#763F98"/>
<path fill-rule="evenodd" clip-rule="evenodd" d="M81.6819 21.5086C82.0605 21.2162 84.7782 19.0969 85.7665 18.3702C86.1953 18.0547 86.7988 18.1469 87.1143 18.5757C87.4299 19.0047 87.3377 19.608 86.9089 19.9235C85.9427 20.634 83.2416 22.7404 82.8605 23.0345C82.6851 23.1699 82.4776 23.2358 82.2719 23.2358C81.9835 23.2358 81.6983 23.1068 81.5082 22.8609C81.1825 22.4395 81.2605 21.834 81.6819 21.5086Z" fill="#763F98"/>
<path fill-rule="evenodd" clip-rule="evenodd" d="M84.8361 36.1398C85.7642 36.3361 89.7612 37.2437 90.8171 37.4613C91.3386 37.5689 91.674 38.079 91.5664 38.6004C91.4725 39.0561 91.071 39.3699 90.6233 39.3699C90.5587 39.3699 90.4931 39.3634 90.4275 39.3498C89.353 39.1281 85.3513 38.2196 84.4373 38.0263C83.9163 37.9162 83.5834 37.4047 83.6935 36.8837C83.8035 36.3627 84.3151 36.03 84.8361 36.1398Z" fill="#763F98"/>
<path fill-rule="evenodd" clip-rule="evenodd" d="M0.849694 43.2585C1.94757 43.127 6.05062 42.5574 7.00688 42.4379C7.53533 42.3718 8.01706 42.7464 8.08314 43.2749C8.14923 43.8033 7.77433 44.285 7.24614 44.3511C6.30305 44.4689 2.19502 45.0396 1.07876 45.173C1.04 45.1777 1.00124 45.1799 0.962983 45.1799C0.481747 45.1799 0.0656052 44.8202 0.00697231 44.3303C-0.0563812 43.8016 0.321253 43.3218 0.849694 43.2585Z" fill="#763F98"/>
<path fill-rule="evenodd" clip-rule="evenodd" d="M6.72298 36.647C6.62659 36.647 6.52894 36.6325 6.4323 36.602C5.96771 36.4552 2.70638 35.4075 1.55981 35.0743C1.04851 34.9257 0.754352 34.3908 0.902921 33.8795C1.05149 33.3682 1.58664 33.0743 2.09769 33.2226C3.2701 33.5633 6.55131 34.6174 7.01316 34.7633C7.52074 34.9237 7.80222 35.4654 7.64197 35.9729C7.51228 36.3843 7.13242 36.647 6.72298 36.647Z" fill="#763F98"/>
<path fill-rule="evenodd" clip-rule="evenodd" d="M3.92727 52.886C4.8485 52.3153 8.28896 50.0882 9.0882 49.5874C9.53938 49.3044 10.1344 49.441 10.4171 49.8922C10.6999 50.3434 10.5635 50.9384 10.1123 51.2211C9.32522 51.7145 5.88054 53.9443 4.94291 54.5252C4.78465 54.6231 4.6095 54.6698 4.43608 54.6698C4.11336 54.6698 3.79808 54.5078 3.61572 54.2134C3.33498 53.7605 3.4746 53.1665 3.92727 52.886Z" fill="#763F98"/>
</g>
<defs>
<clipPath id="clip0_62_24441">
<rect width="91.5865" height="67" fill="white"/>
</clipPath>
</defs>
</svg>
