<svg width="17" height="15" viewBox="0 0 17 15" fill="none" xmlns="http://www.w3.org/2000/svg">
<path fill-rule="evenodd" clip-rule="evenodd" d="M14.7676 2.35013L8.04356 12.627C8.02504 12.6553 8.00751 12.6821 7.99089 12.7074C7.98591 12.6775 7.98069 12.646 7.97518 12.6126L7.10635 7.34857L14.7676 2.35013ZM6.49163 6.40637L14.1529 1.40793L2.03801 3.42215C2.00463 3.42769 1.97306 3.43295 1.94318 3.43796C1.96853 3.45455 1.99533 3.47205 2.02366 3.49054L6.49163 6.40637ZM15.81 0.00525795C15.9473 -0.00511288 16.1818 -0.0130134 16.399 0.114159C16.6533 0.263044 16.8227 0.522806 16.8566 0.815505C16.8855 1.06552 16.7838 1.277 16.719 1.39851C16.6497 1.52843 16.549 1.68226 16.4414 1.8467L8.97218 13.2625C8.85207 13.4461 8.74227 13.614 8.6443 13.7385C8.55679 13.8497 8.39327 14.0443 8.13595 14.1161C7.84146 14.1981 7.52544 14.1315 7.2892 13.9374C7.08277 13.7679 7.01179 13.5238 6.97667 13.3867C6.93736 13.2332 6.90471 13.0353 6.869 12.8188L5.97959 7.4301C5.97863 7.42434 5.97774 7.41893 5.9769 7.41383C5.97257 7.411 5.96798 7.408 5.96308 7.40481L1.38928 4.41991C1.20554 4.30002 1.03755 4.19041 0.912883 4.09259C0.801533 4.00521 0.606755 3.84192 0.53473 3.58468C0.452303 3.29029 0.518595 2.9742 0.712356 2.73772C0.881665 2.5311 1.12564 2.45982 1.26271 2.42455C1.41616 2.38506 1.61403 2.35217 1.83044 2.31621L15.288 0.0787552C15.4818 0.0465112 15.6631 0.0163454 15.81 0.00525795Z" fill="white"/>
</svg>
