<svg width="12" height="12" viewBox="0 0 12 12" fill="none" xmlns="http://www.w3.org/2000/svg">
<path fill-rule="evenodd" clip-rule="evenodd" d="M6.00011 0.533203C6.44194 0.533203 6.80011 0.891375 6.80011 1.3332V5.19987H10.6668C11.1086 5.19987 11.4668 5.55804 11.4668 5.99987C11.4668 6.4417 11.1086 6.79987 10.6668 6.79987H6.80011V10.6665C6.80011 11.1084 6.44194 11.4665 6.00011 11.4665C5.55829 11.4665 5.20011 11.1084 5.20011 10.6665V6.79987H1.33345C0.891619 6.79987 0.533447 6.4417 0.533447 5.99987C0.533447 5.55804 0.891619 5.19987 1.33345 5.19987H5.20011V1.3332C5.20011 0.891375 5.55829 0.533203 6.00011 0.533203Z" fill="white"/>
</svg>
