<svg width="48" height="48" viewBox="0 0 48 48" fill="none" xmlns="http://www.w3.org/2000/svg">
<path d="M44.625 25.1701L42.3375 24.8851C41.6136 24.7938 40.9034 24.615 40.2225 24.3526L37.5 23.3101V24.7501C37.4988 25.1475 37.3404 25.5284 37.0593 25.8094C36.7783 26.0905 36.3975 26.2489 36 26.2501H14.25C13.8722 26.2492 13.5087 26.1059 13.232 25.8487C12.9553 25.5914 12.7858 25.2393 12.7575 24.8626C11.7826 25.2954 10.7488 25.581 9.69 25.7101C8.14692 25.9132 6.615 26.1935 5.1 26.5501L3 30.7501H0.765C0.7575 30.8851 0.75 31.0126 0.75 31.1476V34.5001C0.751187 34.8975 0.909604 35.2784 1.19065 35.5594C1.4717 35.8405 1.85254 35.9989 2.25 36.0001H5.25L5.325 35.9926C5.49714 36.8403 5.95705 37.6024 6.62681 38.1498C7.29657 38.6973 8.13498 38.9963 9 38.9963C9.86502 38.9963 10.7034 38.6973 11.3732 38.1498C12.043 37.6024 12.5029 36.8403 12.675 35.9926L12.75 36.0001H35.25L35.325 35.9926C35.4971 36.8403 35.957 37.6024 36.6268 38.1498C37.2966 38.6973 38.135 38.9963 39 38.9963C39.865 38.9963 40.7034 38.6973 41.3732 38.1498C42.043 37.6024 42.5029 36.8403 42.675 35.9926L42.75 36.0001L45.9975 35.4601C46.3468 35.4007 46.664 35.22 46.8931 34.9497C47.1223 34.6794 47.2486 34.3369 47.25 33.9826V28.1476C47.2503 27.4167 46.9837 26.7108 46.5003 26.1626C46.017 25.6144 45.3501 25.2614 44.625 25.1701Z" fill="#FFD45D"/>
<path d="M21 21L21.75 18H29.25L30 21L29.985 21.1425C29.1937 21.0462 28.3972 20.9987 27.6 21H22.5C22.0033 20.9979 21.5071 21.0304 21.015 21.0975L21 21Z" fill="#FFC551"/>
<path d="M37.5 23.31V24.75C37.4988 25.1475 37.3404 25.5283 37.0593 25.8094C36.7783 26.0904 36.3975 26.2488 36 26.25H25.5V21H27.6C28.3972 20.9987 29.1937 21.0463 29.985 21.1425C31.7499 21.3372 33.4819 21.7608 35.1375 22.4025L37.5 23.31Z" fill="#F2F9FF"/>
<path d="M25.5 21V26.25H14.25C13.8722 26.2492 13.5087 26.1058 13.232 25.8486C12.9553 25.5914 12.7858 25.2392 12.7575 24.8625C13.4468 24.5587 14.0987 24.1761 14.7 23.7225C16.5437 22.318 18.719 21.4138 21.015 21.0975C21.5071 21.0304 22.0033 20.9978 22.5 21H25.5Z" fill="#F2F9FF"/>
<path d="M5.10002 26.55L3.00001 30.75H0.765015C0.844835 29.8209 1.21196 28.9397 1.81541 28.2287C2.41887 27.5178 3.22871 27.0123 4.13252 26.7825C4.44002 26.7075 4.76252 26.625 5.10002 26.55Z" fill="#AD313B"/>
<path d="M6.2355 26.3003C5.84625 26.382 5.466 26.4653 5.1 26.55L3 30.75H0.765C0.7575 30.885 0.75 31.0125 0.75 31.1475V34.5C0.751187 34.8975 0.909604 35.2783 1.19065 35.5594C1.4717 35.8404 1.85254 35.9989 2.25 36H5.25L5.325 35.9925C5.49714 36.8403 5.95705 37.6024 6.62681 38.1498C7.29657 38.6973 8.13498 38.9963 9 38.9963C9.86502 38.9963 10.7034 38.6973 11.3732 38.1498C12.043 37.6024 12.5029 36.8403 12.675 35.9925L12.75 36H35.25L35.325 35.9925C35.4971 36.8403 35.957 37.6024 36.6268 38.1498C37.2966 38.6973 38.135 38.9963 39 38.9963C39.865 38.9963 40.7034 38.6973 41.3732 38.1498C42.043 37.6024 42.5029 36.8403 42.675 35.9925L42.75 36L45.9975 35.46C46.3468 35.4007 46.664 35.2199 46.8931 34.9497C47.1223 34.6794 47.2486 34.3369 47.25 33.9825V33C25.9365 33 8.42925 30.0683 6.2355 26.3003Z" fill="#FFC551"/>
<path d="M39 30C37.8697 30.0004 36.7697 30.3655 35.8635 31.0411C34.9574 31.7168 34.2935 32.6668 33.9705 33.75H14.0295C13.6592 32.471 12.8161 31.3809 11.6714 30.7007C10.5267 30.0206 9.16612 29.8014 7.86575 30.0877C6.56539 30.374 5.42265 31.1443 4.66944 32.2423C3.91623 33.3403 3.60896 34.6838 3.81 36H5.25001L5.325 35.9925C5.49714 36.8402 5.95705 37.6024 6.62681 38.1498C7.29657 38.6972 8.13499 38.9963 9.00001 38.9963C9.86502 38.9963 10.7034 38.6972 11.3732 38.1498C12.043 37.6024 12.5029 36.8402 12.675 35.9925L12.75 36H35.25L35.325 35.9925C35.4971 36.8402 35.9571 37.6024 36.6268 38.1498C37.2966 38.6972 38.135 38.9963 39 38.9963C39.865 38.9963 40.7034 38.6972 41.3732 38.1498C42.043 37.6024 42.5029 36.8402 42.675 35.9925L42.75 36L44.2245 35.7548C44.2403 35.5883 44.25 35.4203 44.25 35.25C44.25 33.8576 43.6969 32.5223 42.7123 31.5377C41.7278 30.5531 40.3924 30 39 30Z" fill="#F0AF4C"/>
<path d="M9 39C8.13446 38.9998 7.29562 38.7002 6.62579 38.1521C5.95596 37.6039 5.49638 36.8409 5.325 35.9925C5.27334 35.7484 5.24819 35.4995 5.25 35.25C5.25 34.2554 5.64509 33.3016 6.34835 32.5983C7.05161 31.8951 8.00544 31.5 9 31.5C9.99456 31.5 10.9484 31.8951 11.6516 32.5983C12.3549 33.3016 12.75 34.2554 12.75 35.25C12.7518 35.4995 12.7267 35.7484 12.675 35.9925C12.5036 36.8409 12.044 37.6039 11.3742 38.1521C10.7044 38.7002 9.86554 38.9998 9 39ZM9 33.75C8.70333 33.75 8.41332 33.838 8.16664 34.0028C7.91997 34.1676 7.72771 34.4019 7.61418 34.676C7.50065 34.9501 7.47094 35.2517 7.52882 35.5426C7.5867 35.8336 7.72956 36.1009 7.93934 36.3107C8.14912 36.5204 8.41639 36.6633 8.70736 36.7212C8.99834 36.7791 9.29994 36.7494 9.57402 36.6358C9.84811 36.5223 10.0824 36.33 10.2472 36.0834C10.412 35.8367 10.5 35.5467 10.5 35.25C10.4988 34.8525 10.3404 34.4717 10.0593 34.1907C9.7783 33.9096 9.39746 33.7512 9 33.75Z" fill="#404040"/>
<path d="M40.5 35.25C40.5 34.9533 40.412 34.6633 40.2472 34.4166C40.0824 34.17 39.8481 33.9777 39.574 33.8642C39.2999 33.7506 38.9983 33.7209 38.7074 33.7788C38.4164 33.8367 38.1491 33.9796 37.9393 34.1893C37.7296 34.3991 37.5867 34.6664 37.5288 34.9574C37.4709 35.2483 37.5006 35.5499 37.6142 35.824C37.7277 36.0981 37.92 36.3324 38.1666 36.4972C38.4133 36.662 38.7033 36.75 39 36.75C39.3975 36.7488 39.7783 36.5904 40.0593 36.3093C40.3404 36.0283 40.4988 35.6475 40.5 35.25ZM39 31.5C39.9946 31.5 40.9484 31.8951 41.6516 32.5983C42.3549 33.3016 42.75 34.2554 42.75 35.25C42.7518 35.4995 42.7267 35.7484 42.675 35.9925C42.5029 36.8402 42.043 37.6024 41.3732 38.1498C40.7034 38.6972 39.865 38.9963 39 38.9963C38.135 38.9963 37.2966 38.6972 36.6268 38.1498C35.957 37.6024 35.4971 36.8402 35.325 35.9925C35.2733 35.7484 35.2482 35.4995 35.25 35.25C35.25 34.2554 35.6451 33.3016 36.3483 32.5983C37.0516 31.8951 38.0054 31.5 39 31.5Z" fill="#404040"/>
<path d="M4.55252 27.6443L5.10002 26.55C4.76252 26.625 4.44002 26.7075 4.13252 26.7825C3.22871 27.0123 2.41887 27.5178 1.81541 28.2287C1.21196 28.9397 0.844835 29.8209 0.765015 30.75H1.65001C1.83853 30.0324 2.20248 29.3728 2.70912 28.8307C3.21577 28.2886 3.84922 27.8809 4.55252 27.6443Z" fill="#DB3744"/>
<path d="M9 36.75C9.82843 36.75 10.5 36.0784 10.5 35.25C10.5 34.4216 9.82843 33.75 9 33.75C8.17157 33.75 7.5 34.4216 7.5 35.25C7.5 36.0784 8.17157 36.75 9 36.75Z" fill="#CCCCCC"/>
<path d="M39 36.75C39.8284 36.75 40.5 36.0784 40.5 35.25C40.5 34.4216 39.8284 33.75 39 33.75C38.1716 33.75 37.5 34.4216 37.5 35.25C37.5 36.0784 38.1716 36.75 39 36.75Z" fill="#CCCCCC"/>
<path d="M42.75 35.2501C42.7518 35.4995 42.7267 35.7485 42.675 35.9926C42.5029 36.8403 42.043 37.6024 41.3732 38.1498C40.7034 38.6973 39.865 38.9963 39 38.9963C38.135 38.9963 37.2966 38.6973 36.6268 38.1498C35.957 37.6024 35.4971 36.8403 35.325 35.9926C35.2733 35.7485 35.2482 35.4995 35.25 35.2501C35.2523 34.9958 35.2774 34.7423 35.325 34.4926C35.4971 35.3403 35.957 36.1024 36.6268 36.6498C37.2966 37.1973 38.135 37.4963 39 37.4963C39.865 37.4963 40.7034 37.1973 41.3732 36.6498C42.043 36.1024 42.5029 35.3403 42.675 34.4926C42.7226 34.7423 42.7477 34.9958 42.75 35.2501Z" fill="#303030"/>
<path d="M39 36C38.6684 35.9988 38.3466 35.8877 38.0848 35.6841C37.8231 35.4806 37.6361 35.1961 37.5532 34.875C37.5195 34.9972 37.5016 35.1232 37.5 35.25C37.5 35.6478 37.658 36.0294 37.9393 36.3107C38.2206 36.592 38.6022 36.75 39 36.75C39.3978 36.75 39.7794 36.592 40.0607 36.3107C40.342 36.0294 40.5 35.6478 40.5 35.25C40.4984 35.1232 40.4805 34.9972 40.4468 34.875C40.3639 35.1961 40.1769 35.4806 39.9152 35.6841C39.6534 35.8877 39.3316 35.9988 39 36Z" fill="#ADADAD"/>
<path d="M12.75 35.2501C12.7518 35.4995 12.7267 35.7485 12.675 35.9926C12.5029 36.8403 12.043 37.6024 11.3732 38.1498C10.7034 38.6973 9.86502 38.9963 9 38.9963C8.13498 38.9963 7.29657 38.6973 6.62681 38.1498C5.95705 37.6024 5.49714 36.8403 5.325 35.9926C5.27334 35.7485 5.24819 35.4995 5.25 35.2501C5.2523 34.9958 5.2774 34.7423 5.325 34.4926C5.49714 35.3403 5.95705 36.1024 6.62681 36.6498C7.29657 37.1973 8.13498 37.4963 9 37.4963C9.86502 37.4963 10.7034 37.1973 11.3732 36.6498C12.043 36.1024 12.5029 35.3403 12.675 34.4926C12.7226 34.7423 12.7477 34.9958 12.75 35.2501Z" fill="#303030"/>
<path d="M9 36C8.66842 35.9988 8.3466 35.8877 8.08484 35.6841C7.82308 35.4806 7.63614 35.1961 7.55325 34.875C7.51945 34.9972 7.50155 35.1232 7.5 35.25C7.5 35.6478 7.65804 36.0294 7.93934 36.3107C8.22064 36.592 8.60218 36.75 9 36.75C9.39782 36.75 9.77936 36.592 10.0607 36.3107C10.342 36.0294 10.5 35.6478 10.5 35.25C10.4984 35.1232 10.4805 34.9972 10.4467 34.875C10.3639 35.1961 10.1769 35.4806 9.91516 35.6841C9.6534 35.8877 9.33158 35.9988 9 36Z" fill="#ADADAD"/>
<path d="M24 27.75H23.25C22.8358 27.75 22.5 28.0858 22.5 28.5C22.5 28.9142 22.8358 29.25 23.25 29.25H24C24.4142 29.25 24.75 28.9142 24.75 28.5C24.75 28.0858 24.4142 27.75 24 27.75Z" fill="#404040"/>
<path d="M35.25 27.75H34.5C34.0858 27.75 33.75 28.0858 33.75 28.5C33.75 28.9142 34.0858 29.25 34.5 29.25H35.25C35.6642 29.25 36 28.9142 36 28.5C36 28.0858 35.6642 27.75 35.25 27.75Z" fill="#404040"/>
<path d="M22.5 18H21.75L21 21L21.015 21.0975C21.5071 21.0304 22.0033 20.9979 22.5 21H27.6C28.3972 20.9987 29.1937 21.0462 29.985 21.1425L30 21L29.8118 20.25C25.7543 20.217 22.5 19.2248 22.5 18Z" fill="#F0AF4C"/>
<path d="M26.25 21H25.5V26.25H36C36.2627 26.2485 36.5204 26.178 36.7474 26.0456C36.9743 25.9132 37.1624 25.7235 37.293 25.4955C31.1715 25.4512 26.25 23.4592 26.25 21Z" fill="#C2E6FF"/>
<path d="M16.4138 22.6238C15.8186 22.9513 15.246 23.3184 14.7 23.7225C14.0987 24.1762 13.4468 24.5587 12.7575 24.8625C12.7858 25.2393 12.9553 25.5914 13.232 25.8486C13.5087 26.1059 13.8722 26.2492 14.25 26.25H25.5V25.5C21.3533 25.5 17.8245 24.3068 16.4138 22.6238Z" fill="#C2E6FF"/>
<path d="M14.25 26.625H36C36.4973 26.625 36.9742 26.4274 37.3258 26.0758C37.6774 25.7242 37.875 25.2473 37.875 24.75V23.4532L37.5 23.31L35.1375 22.4025C33.4819 21.7607 31.7499 21.3371 29.985 21.1425C29.1937 21.0462 28.3972 20.9986 27.6 21H22.5C22.0033 20.9978 21.5071 21.0304 21.015 21.0975C18.719 21.4138 16.5437 22.318 14.7 23.7225C14.0986 24.1761 13.4468 24.5587 12.7575 24.8625C12.6412 24.915 12.5205 24.9577 12.4027 25.005C12.4631 25.4526 12.6834 25.8632 13.0229 26.161C13.3625 26.4588 13.7984 26.6236 14.25 26.625ZM25.875 21.375H27.6C28.3837 21.3732 29.1667 21.4203 29.9445 21.516C31.677 21.7073 33.3772 22.123 35.0025 22.7527L37.125 23.568V24.75C37.125 25.0483 37.0065 25.3345 36.7955 25.5455C36.5845 25.7565 36.2984 25.875 36 25.875H25.875V21.375ZM14.925 24.0232C16.7211 22.6608 18.8364 21.7813 21.069 21.4687C21.5432 21.4041 22.0214 21.3728 22.5 21.375H25.125V25.875H14.25C14.01 25.8747 13.7764 25.7977 13.5833 25.6552C13.3902 25.5127 13.2478 25.3122 13.1767 25.083C13.7939 24.7899 14.3797 24.4348 14.925 24.0232Z" fill="#303030"/>
</svg>
