<svg width="48" height="48" viewBox="0 0 48 48" fill="none" xmlns="http://www.w3.org/2000/svg">
<path d="M11.6975 38.335V40.8983C11.6975 41.5197 12.2018 42.024 12.8232 42.024H16.4133C17.0346 42.024 17.539 41.5197 17.539 40.8983V38.335H11.6975Z" fill="#454545"/>
<path d="M30.4131 38.335V40.8983C30.4131 41.5197 30.9174 42.024 31.5388 42.024H35.1288C35.7502 42.024 36.2546 41.5197 36.2546 40.8983V38.335H30.4131Z" fill="#454545"/>
<path d="M40.9771 15.3179C40.654 15.3179 40.3928 15.0567 40.3928 14.7337C40.3928 14.3205 40.0562 13.985 39.6442 13.985H39.0025C38.6794 13.985 38.4182 13.7238 38.4182 13.4008C38.4182 13.0777 38.6795 12.8165 39.0025 12.8165H39.6442C40.7013 12.8165 41.5613 13.6766 41.5613 14.7326C41.5614 15.0556 41.3002 15.3179 40.9771 15.3179Z" fill="#CACACA"/>
<path d="M41.952 14.63H39.6082V20.959H41.952V14.63Z" fill="#6F6F6F"/>
<path d="M6.97492 15.3179C7.29803 15.3179 7.55916 15.0567 7.55916 14.7337C7.55916 14.3205 7.89467 13.985 8.30782 13.985H8.94952C9.27262 13.985 9.53376 13.7238 9.53376 13.4008C9.53376 13.0777 9.27255 12.8165 8.94952 12.8165H8.30782C7.25072 12.8165 6.39069 13.6766 6.39069 14.7326C6.39061 15.0556 6.65182 15.3179 6.97492 15.3179Z" fill="#CACACA"/>
<path d="M8.34385 14.63H6V20.959H8.34385V14.63Z" fill="#6F6F6F"/>
<path d="M36.778 6H11.1739C9.93109 6 8.92245 7.00754 8.92245 8.25148V28.5015H39.0295V8.25148C39.0295 7.00754 38.022 6 36.778 6Z" fill="#86DAF1"/>
<path d="M8.92245 35.8831V36.5022C8.92245 37.745 9.93116 38.7537 11.1739 38.7537H36.778C38.022 38.7537 39.0295 37.745 39.0295 36.5022V35.8831H8.92245Z" fill="#ED6262"/>
<path d="M39.0295 32.6466H8.92245V35.8786H39.0295V32.6466Z" fill="#CD484B"/>
<path d="M39.0295 27.7787H8.92245V32.651H39.0295V27.7787Z" fill="#F3F3F3"/>
<path d="M39.0295 12.3031H8.92245V26.3716H39.0295V12.3031Z" fill="#6F6F6F"/>
<path d="M24.7798 12.3031H23.1722V26.3716H24.7798V12.3031Z" fill="#454545"/>
<path d="M39.0295 26.3716H8.92245V27.7788H39.0295V26.3716Z" fill="#86DAF1"/>
<path d="M12.1669 35.1469C12.6531 35.1469 13.0473 34.7528 13.0473 34.2666C13.0473 33.7804 12.6531 33.3862 12.1669 33.3862C11.6807 33.3862 11.2866 33.7804 11.2866 34.2666C11.2866 34.7528 11.6807 35.1469 12.1669 35.1469Z" fill="#F3F3F3"/>
<path d="M14.4072 35.1469C14.8934 35.1469 15.2875 34.7528 15.2875 34.2666C15.2875 33.7804 14.8934 33.3862 14.4072 33.3862C13.921 33.3862 13.5268 33.7804 13.5268 34.2666C13.5268 34.7528 13.921 35.1469 14.4072 35.1469Z" fill="#FFE21F"/>
<path d="M33.5449 35.147C34.0311 35.147 34.4252 34.7529 34.4252 34.2667C34.4252 33.7805 34.0311 33.3864 33.5449 33.3864C33.0587 33.3864 32.6645 33.7805 32.6645 34.2667C32.6645 34.7529 33.0587 35.147 33.5449 35.147Z" fill="#FFE21F"/>
<path d="M35.7828 35.1469C36.269 35.1469 36.6632 34.7528 36.6632 34.2666C36.6632 33.7804 36.269 33.3862 35.7828 33.3862C35.2966 33.3862 34.9025 33.7804 34.9025 34.2666C34.9025 34.7528 35.2966 35.1469 35.7828 35.1469Z" fill="#F3F3F3"/>
<path d="M35.8032 28.9912H33.6451C32.9697 28.9912 32.4214 29.5395 32.4214 30.2149C32.4214 30.8903 32.9685 31.4374 33.6451 31.4374H35.8032C36.4787 31.4374 37.0269 30.8903 37.0269 30.2149C37.0257 29.5395 36.4787 28.9912 35.8032 28.9912Z" fill="#FFBD49"/>
<path d="M14.128 28.9912H11.9699C11.2944 28.9912 10.7462 29.5395 10.7462 30.2149C10.7462 30.8903 11.2933 31.4374 11.9699 31.4374H14.128C14.8034 31.4374 15.3505 30.8903 15.3505 30.2149C15.3517 29.5395 14.8034 28.9912 14.128 28.9912Z" fill="#FFBD49"/>
<path d="M32.5553 6.98279H14.7628C13.565 6.98279 12.5946 7.95318 12.5946 9.15097C12.5946 10.3488 13.565 11.3203 14.7628 11.3203H32.5553C33.7531 11.3203 34.7235 10.3499 34.7235 9.15097C34.7235 7.95427 33.7531 6.98279 32.5553 6.98279Z" fill="#454545"/>
<path opacity="0.1" d="M39.0295 12.3031H8.92245V19.1207C8.92245 19.7635 9.4144 20.3511 10.0707 20.3781C10.754 20.4197 11.3281 19.8727 11.3281 19.1893V16.984C11.3281 16.4098 11.8066 15.973 12.3942 15.9866C12.3942 15.9866 12.3942 15.9866 12.4077 15.9866C12.4077 15.9866 12.4077 15.9866 12.4212 15.9866C12.9954 15.9731 13.4873 16.4099 13.4873 16.984V19.4212C13.4873 20.0775 13.9658 20.6516 14.6075 20.6922C15.2931 20.7192 15.8536 20.189 15.8717 19.5214V16.2657C15.8717 15.5813 16.4402 15.0353 17.1326 15.0657C17.7788 15.104 18.2628 15.6815 18.2628 16.3265V19.4359C18.2819 20.0629 18.7604 20.6167 19.3908 20.6573C20.0876 20.6843 20.6482 20.1384 20.6482 19.455L20.6617 16.8061C20.6617 16.1228 21.2224 15.5757 21.9191 15.6027C22.5619 15.6432 23.0539 16.2173 23.0539 16.8737V19.741C23.0674 20.3838 23.601 20.9028 24.2427 20.9028C24.9125 20.9028 25.445 20.3557 25.445 19.7005V16.2849C25.445 15.7648 25.8311 15.2876 26.5381 15.2876C27.0851 15.247 27.549 15.6974 27.549 16.231V19.5733C27.549 20.2296 28.0275 20.8026 28.6702 20.8443C29.3671 20.8713 29.9412 20.3253 29.9412 19.642V17.1495C29.9412 16.6272 30.3307 16.1522 31.0208 16.1522C31.6085 16.1522 32.0869 16.6306 32.0869 17.2048V19.1231C32.0869 19.7659 32.5789 20.3535 33.2217 20.3805C33.905 20.4221 34.4927 19.8751 34.4927 19.1917V16.9864C34.4927 16.4122 34.9711 15.9754 35.5453 15.989C35.5588 15.989 35.5588 15.989 35.5588 15.989C35.5723 15.989 35.5723 15.989 35.5858 15.989C36.1599 15.9755 36.6384 16.4123 36.6384 16.9864V19.4236C36.6384 20.0799 37.1303 20.654 37.7731 20.6946C38.4699 20.7216 39.0305 20.1745 39.0305 19.4911V12.3031H39.0295Z" fill="white"/>
</svg>
