<svg width="48" height="48" viewBox="0 0 48 48" fill="none" xmlns="http://www.w3.org/2000/svg">
<path d="M46.5 28.5V23.25C46.5 23.25 45 18.75 42.75 18.75H23.25C16.5 18.75 11.25 24.75 11.25 24.75C8.90806 24.7118 6.57612 25.0641 4.35 25.7925C3.02787 26.1898 1.8022 26.8563 0.75 27.75V28.5V33C0.75138 33.2647 0.822029 33.5245 0.954921 33.7534C1.08781 33.9823 1.27832 34.1725 1.5075 34.305C1.73322 34.435 1.98955 34.5023 2.25 34.5H3.75C3.75 33.5054 4.14509 32.5516 4.84835 31.8483C5.55161 31.1451 6.50544 30.75 7.5 30.75C8.49456 30.75 9.44839 31.1451 10.1517 31.8483C10.8549 32.5516 11.25 33.5054 11.25 34.5H34.5C34.5 33.5054 34.8951 32.5516 35.5984 31.8483C36.3016 31.1451 37.2554 30.75 38.25 30.75C39.2446 30.75 40.1984 31.1451 40.9016 31.8483C41.6049 32.5516 42 33.5054 42 34.5H44.6925C45.3705 34.4992 46.0206 34.2295 46.5 33.75C46.9795 33.2706 47.2492 32.6205 47.25 31.9425V30.3075C47.2491 29.6295 46.9794 28.9795 46.5 28.5Z" fill="#575757"/>
<path d="M42.75 21.75V22.5C42.75 24.75 36.75 24.75 36.75 24.75C36.75 24.75 35.25 19.5 34.5 18.75H40.5C41.1367 18.9601 41.6938 19.3603 42.0961 19.8967C42.4983 20.4331 42.7266 21.0799 42.75 21.75Z" fill="#F2F9FF"/>
<path d="M36.75 24.75H25.5V18.75H34.5C35.25 19.5 36.75 24.75 36.75 24.75Z" fill="#F2F9FF"/>
<path d="M25.5 18.75V24.75H14.25C14.25 24.75 19.5 18.75 23.25 18.75H25.5Z" fill="#F2F9FF"/>
<path d="M4.35 25.7925L3 28.5H0.75V27.75C1.8022 26.8563 3.02787 26.1898 4.35 25.7925Z" fill="#FFD45D"/>
<path d="M46.5 24V27H45L44.25 24H46.5Z" fill="#DB3744"/>
<path d="M7.5 36C8.32843 36 9 35.3284 9 34.5C9 33.6716 8.32843 33 7.5 33C6.67157 33 6 33.6716 6 34.5C6 35.3284 6.67157 36 7.5 36Z" fill="#CCCCCC"/>
<path d="M38.25 36C39.0784 36 39.75 35.3284 39.75 34.5C39.75 33.6716 39.0784 33 38.25 33C37.4216 33 36.75 33.6716 36.75 34.5C36.75 35.3284 37.4216 36 38.25 36Z" fill="#CCCCCC"/>
<path d="M9 34.5C9 34.2033 8.91203 33.9133 8.7472 33.6666C8.58238 33.42 8.34811 33.2277 8.07403 33.1142C7.79994 33.0006 7.49834 32.9709 7.20736 33.0288C6.91639 33.0867 6.64912 33.2296 6.43934 33.4393C6.22956 33.6491 6.0867 33.9164 6.02882 34.2074C5.97094 34.4983 6.00065 34.7999 6.11418 35.074C6.22771 35.3481 6.41997 35.5824 6.66664 35.7472C6.91332 35.912 7.20333 36 7.5 36C7.89746 35.9988 8.2783 35.8404 8.55935 35.5593C8.8404 35.2783 8.99881 34.8975 9 34.5ZM7.5 30.75C8.24168 30.75 8.9667 30.9699 9.58339 31.382C10.2001 31.794 10.6807 32.3797 10.9645 33.0649C11.2484 33.7502 11.3226 34.5042 11.1779 35.2316C11.0333 35.959 10.6761 36.6272 10.1517 37.1516C9.6272 37.6761 8.95902 38.0332 8.23159 38.1779C7.50416 38.3226 6.75016 38.2484 6.06494 37.9645C5.37971 37.6807 4.79404 37.2001 4.38199 36.5834C3.96993 35.9667 3.75 35.2417 3.75 34.5C3.75 33.5054 4.14509 32.5516 4.84835 31.8483C5.55161 31.1451 6.50544 30.75 7.5 30.75Z" fill="#404040"/>
<path d="M34.5 34.5C34.5 33.7583 34.7199 33.0333 35.132 32.4166C35.544 31.7999 36.1297 31.3193 36.8149 31.0355C37.5002 30.7516 38.2542 30.6774 38.9816 30.8221C39.709 30.9668 40.3772 31.3239 40.9016 31.8484C41.4261 32.3728 41.7832 33.041 41.9279 33.7684C42.0726 34.4958 41.9984 35.2498 41.7145 35.9351C41.4307 36.6203 40.9501 37.206 40.3334 37.618C39.7167 38.0301 38.9917 38.25 38.25 38.25C37.2554 38.25 36.3016 37.8549 35.5983 37.1517C34.8951 36.4484 34.5 35.4946 34.5 34.5ZM38.25 33C37.9533 33 37.6633 33.088 37.4166 33.2528C37.17 33.4176 36.9777 33.6519 36.8642 33.926C36.7506 34.2001 36.7209 34.5017 36.7788 34.7926C36.8367 35.0836 36.9796 35.3509 37.1893 35.5607C37.3991 35.7704 37.6664 35.9133 37.9574 35.9712C38.2483 36.0291 38.5499 35.9994 38.824 35.8858C39.0981 35.7723 39.3324 35.58 39.4972 35.3334C39.662 35.0867 39.75 34.7967 39.75 34.5C39.7488 34.1025 39.5904 33.7217 39.3093 33.4407C39.0283 33.1596 38.6475 33.0012 38.25 33Z" fill="#404040"/>
<path d="M47.25 30.3075V31.9425C47.2492 32.6205 46.9795 33.2706 46.5 33.75C46.0206 34.2295 45.3705 34.4992 44.6925 34.5H44.25C44.25 34.5 44.25 30.855 41.415 29.25H45L46.5 28.5C46.9794 28.9795 47.2491 29.6295 47.25 30.3075Z" fill="#404040"/>
<path d="M19.101 20.4135C17.3315 21.6787 15.7049 23.1328 14.25 24.75H25.5V24C22.5173 24 19.995 22.5 19.101 20.4135Z" fill="#C2E6FF"/>
<path d="M26.25 18.75H25.5V24.75H36.75C36.75 24.75 36.6645 24.45 36.525 23.994C30.825 23.9348 26.25 21.6142 26.25 18.75Z" fill="#C2E6FF"/>
<path d="M36 18.75H34.5C35.25 19.5 36.75 24.75 36.75 24.75C36.75 24.75 40.1812 24.75 41.85 23.775C38.4645 23.121 36 21.1207 36 18.75Z" fill="#C2E6FF"/>
<path d="M41.415 29.25C40.4438 28.7273 39.3525 28.4686 38.25 28.5C37.3307 28.4375 36.4105 28.6085 35.5751 28.9972C34.7397 29.3859 34.0161 29.9796 33.4718 30.723C23.625 30.4597 15.279 28.032 11.373 24.615L11.25 24.75C8.90806 24.7118 6.57612 25.0641 4.35 25.7925L3 28.5H0.75V33C0.75138 33.2647 0.822029 33.5244 0.954921 33.7534C1.08781 33.9823 1.27832 34.1725 1.5075 34.305C1.73322 34.4349 1.98955 34.5023 2.25 34.5H3.75C3.75 33.5054 4.14509 32.5516 4.84835 31.8483C5.55161 31.1451 6.50544 30.75 7.5 30.75C8.49456 30.75 9.44839 31.1451 10.1517 31.8483C10.8549 32.5516 11.25 33.5054 11.25 34.5H34.5C34.5 33.5054 34.8951 32.5516 35.5984 31.8483C36.3016 31.1451 37.2554 30.75 38.25 30.75C39.2446 30.75 40.1984 31.1451 40.9016 31.8483C41.6049 32.5516 42 33.5054 42 34.5H44.25C44.25 34.5 44.25 30.855 41.415 29.25Z" fill="#4A4A4A"/>
<path d="M41.415 29.25C40.4438 28.7273 39.3525 28.4686 38.25 28.5C34.743 28.5 33.2925 30.5467 32.6873 32.25H13.0628C12.4575 30.5467 11.007 28.5 7.50001 28.5C2.14501 28.5 1.56751 33.285 1.50751 34.305C1.73323 34.4349 1.98956 34.5023 2.25001 34.5H3.75001C3.75001 33.5054 4.1451 32.5516 4.84836 31.8483C5.55162 31.1451 6.50545 30.75 7.50001 30.75C8.49457 30.75 9.4484 31.1451 10.1517 31.8483C10.8549 32.5516 11.25 33.5054 11.25 34.5H34.5C34.5 33.5054 34.8951 32.5516 35.5984 31.8483C36.3016 31.1451 37.2554 30.75 38.25 30.75C39.2446 30.75 40.1984 31.1451 40.9017 31.8483C41.6049 32.5516 42 33.5054 42 34.5H44.25C44.25 34.5 44.25 30.855 41.415 29.25Z" fill="#303030"/>
<path d="M4.35 25.7925C3.02787 26.1898 1.8022 26.8563 0.75 27.75V28.5C1.67594 27.716 2.7402 27.1119 3.888 26.7187L4.35 25.7925Z" fill="#FAF180"/>
<path d="M45.5355 25.392L45.1875 24H44.25L45 27H46.5V26.2275C46.2735 26.2023 46.0601 26.1089 45.8878 25.9597C45.7156 25.8105 45.5927 25.6126 45.5355 25.392Z" fill="#AD313B"/>
<path d="M42 34.5001C42.0018 34.7495 41.9766 34.9985 41.925 35.2426C41.7528 36.0903 41.2929 36.8524 40.6232 37.3998C39.9534 37.9473 39.115 38.2463 38.25 38.2463C37.385 38.2463 36.5465 37.9473 35.8768 37.3998C35.207 36.8524 34.7471 36.0903 34.575 35.2426C34.5233 34.9985 34.4982 34.7495 34.5 34.5001C34.5023 34.2458 34.5274 33.9923 34.575 33.7426C34.7471 34.5903 35.207 35.3524 35.8768 35.8998C36.5465 36.4473 37.385 36.7463 38.25 36.7463C39.115 36.7463 39.9534 36.4473 40.6232 35.8998C41.2929 35.3524 41.7528 34.5903 41.925 33.7426C41.9726 33.9923 41.9977 34.2458 42 34.5001Z" fill="#303030"/>
<path d="M38.25 35.25C37.9184 35.2488 37.5966 35.1377 37.3348 34.9341C37.0731 34.7306 36.8861 34.4461 36.8032 34.125C36.7695 34.2472 36.7516 34.3732 36.75 34.5C36.75 34.8978 36.908 35.2794 37.1893 35.5607C37.4706 35.842 37.8522 36 38.25 36C38.6478 36 39.0294 35.842 39.3107 35.5607C39.592 35.2794 39.75 34.8978 39.75 34.5C39.7484 34.3732 39.7305 34.2472 39.6968 34.125C39.6139 34.4461 39.4269 34.7306 39.1652 34.9341C38.9034 35.1377 38.5816 35.2488 38.25 35.25Z" fill="#ADADAD"/>
<path d="M11.25 34.5001C11.2518 34.7495 11.2267 34.9985 11.175 35.2426C11.0029 36.0903 10.543 36.8524 9.87322 37.3998C9.20346 37.9473 8.36505 38.2463 7.50003 38.2463C6.63501 38.2463 5.7966 37.9473 5.12684 37.3998C4.45708 36.8524 3.99717 36.0903 3.82503 35.2426C3.77337 34.9985 3.74822 34.7495 3.75003 34.5001C3.75233 34.2458 3.77743 33.9923 3.82503 33.7426C3.99717 34.5903 4.45708 35.3524 5.12684 35.8998C5.7966 36.4473 6.63501 36.7463 7.50003 36.7463C8.36505 36.7463 9.20346 36.4473 9.87322 35.8998C10.543 35.3524 11.0029 34.5903 11.175 33.7426C11.2226 33.9923 11.2477 34.2458 11.25 34.5001Z" fill="#303030"/>
<path d="M7.5 35.25C7.16842 35.2488 6.8466 35.1377 6.58484 34.9341C6.32308 34.7306 6.13614 34.4461 6.05325 34.125C6.01945 34.2472 6.00155 34.3732 6 34.5C6 34.8978 6.15804 35.2794 6.43934 35.5607C6.72064 35.842 7.10218 36 7.5 36C7.89782 36 8.27936 35.842 8.56066 35.5607C8.84196 35.2794 9 34.8978 9 34.5C8.99845 34.3732 8.98055 34.2472 8.94675 34.125C8.86386 34.4461 8.67692 34.7306 8.41516 34.9341C8.1534 35.1377 7.83158 35.2488 7.5 35.25Z" fill="#ADADAD"/>
<path d="M23.25 26.25H22.5C22.0858 26.25 21.75 26.5858 21.75 27C21.75 27.4142 22.0858 27.75 22.5 27.75H23.25C23.6642 27.75 24 27.4142 24 27C24 26.5858 23.6642 26.25 23.25 26.25Z" fill="#212121"/>
<path d="M34.5 26.25H33.75C33.3358 26.25 33 26.5858 33 27C33 27.4142 33.3358 27.75 33.75 27.75H34.5C34.9142 27.75 35.25 27.4142 35.25 27C35.25 26.5858 34.9142 26.25 34.5 26.25Z" fill="#212121"/>
<path d="M46.0575 32.25C45.7881 32.2498 45.5267 32.1586 45.3157 31.9911C45.1046 31.8237 44.9564 31.5898 44.895 31.3275C44.7932 30.89 44.6004 30.4788 44.329 30.1208C44.0576 29.7629 43.7138 29.4661 43.32 29.25H41.415C42.0873 29.6605 42.6675 30.2055 43.1192 30.8508C43.571 31.4961 43.8844 32.2278 44.04 33H43.8465C43.5668 32.9923 43.2953 32.9039 43.0646 32.7456C42.8339 32.5873 42.6538 32.3657 42.546 32.1075C42.1872 31.4799 41.6721 30.9559 41.0506 30.5866C40.4292 30.2173 39.7227 30.0152 39 30H37.5C36.5973 30.0299 35.7255 30.3362 35.0025 30.8775C34.5573 31.1968 34.1968 31.6201 33.9525 32.1105C33.8446 32.3675 33.6651 32.5881 33.4353 32.7458C33.2055 32.9035 32.9351 32.9918 32.6565 33H32.4525C32.333 33.4916 32.2651 33.9943 32.25 34.5H34.5C34.5 33.5054 34.8951 32.5516 35.5983 31.8483C36.3016 31.1451 37.2554 30.75 38.25 30.75C39.2446 30.75 40.1984 31.1451 40.9017 31.8483C41.6049 32.5516 42 33.5054 42 34.5H44.6925C45.3705 34.4992 46.0206 34.2295 46.5 33.75C46.9795 33.2706 47.2492 32.6205 47.25 31.9425V31.0575C47.2502 31.2142 47.2195 31.3693 47.1596 31.5141C47.0998 31.6589 47.0119 31.7904 46.9012 31.9012C46.7904 32.0119 46.6589 32.0998 46.5141 32.1596C46.3693 32.2195 46.2142 32.2502 46.0575 32.25Z" fill="#212121"/>
<path d="M13.5 34.5H11.25C11.25 33.5054 10.8549 32.5516 10.1517 31.8483C9.4484 31.1451 8.49457 30.75 7.50001 30.75C6.50545 30.75 5.55162 31.1451 4.84836 31.8483C4.1451 32.5516 3.75001 33.5054 3.75001 34.5H2.25001C1.98956 34.5023 1.73323 34.435 1.50751 34.305C1.53614 33.8649 1.6039 33.4281 1.71001 33H1.90576C2.18489 32.9923 2.45588 32.9044 2.68628 32.7466C2.91667 32.5888 3.09669 32.368 3.20476 32.1105C3.44909 31.6201 3.80954 31.1968 4.25476 30.8775C4.97715 30.3366 5.84807 30.0303 6.75001 30H8.25001C8.97274 30.0152 9.67922 30.2173 10.3006 30.5866C10.9221 30.9559 11.4372 31.4799 11.796 32.1075C11.904 32.3656 12.0841 32.5871 12.3147 32.7454C12.5454 32.9037 12.8169 32.9921 13.0965 33H13.2975C13.417 33.4916 13.4849 33.9943 13.5 34.5Z" fill="#212121"/>
<path d="M41.3775 18.75H23.25C22.4259 18.7504 21.604 18.8359 20.7975 19.005H20.7825C17.475 20.535 14.145 24.3075 13.965 24.5025C13.9172 24.5569 13.8862 24.6239 13.8757 24.6955C13.8652 24.7672 13.8756 24.8403 13.9057 24.9061C13.9359 24.9719 13.9844 25.0276 14.0455 25.0665C14.1066 25.1053 14.1776 25.1256 14.25 25.125H25.125V34.5H25.875V25.125H36.75C37.4025 25.125 43.125 25.05 43.125 22.5V21.75C43.1064 21.144 42.9368 20.5523 42.6316 20.0284C42.3265 19.5046 41.8954 19.0651 41.3775 18.75ZM25.125 24.375H15.105C16.5525 22.8675 20.415 19.125 23.25 19.125H25.125V24.375ZM25.875 24.375V19.125H34.3237C35.1296 20.8106 35.7747 22.5683 36.2505 24.375H25.875ZM42.375 22.5C42.375 23.9415 38.6805 24.3307 37.0305 24.3712C36.5372 22.5807 35.9171 20.8275 35.175 19.125H40.44C40.9898 19.3161 41.4689 19.6691 41.8143 20.1376C42.1597 20.6062 42.3552 21.1683 42.375 21.75V22.5Z" fill="#303030"/>
</svg>
