<svg width="48" height="48" viewBox="0 0 48 48" fill="none" xmlns="http://www.w3.org/2000/svg">
<path d="M18 25.5H30L27.75 27.75H26.25H21.75H20.25L18 25.5Z" fill="#404040"/>
<path d="M21.75 27.75H26.25V47.25H21.75V27.75Z" fill="#ADADAD"/>
<path d="M47.25 23.25V25.5H30H18H0.75V23.25H8.175H20.25H31.5H39.75H47.25Z" fill="#ADADAD"/>
<path d="M20.25 9.75H31.5V12.75H20.25V9.75Z" fill="#E3E3E3"/>
<path d="M42.75 14.25V20.25C42.75 21.0456 42.4339 21.8087 41.8713 22.3713C41.3087 22.9339 40.5456 23.25 39.75 23.25H31.5V20.25H40.5V13.5C40.5 13.3011 40.421 13.1103 40.2803 12.9697C40.1397 12.829 39.9489 12.75 39.75 12.75H31.5V9.75H38.25C39.4435 9.75 40.5881 10.2241 41.432 11.068C42.2759 11.9119 42.75 13.0565 42.75 14.25Z" fill="#E3E3E3"/>
<path d="M20.25 20.25H31.5V23.25H20.25V20.25Z" fill="#E3E3E3"/>
<path d="M15.1725 13.5825L12.9075 18.0825C12.7939 18.3111 12.7405 18.565 12.7524 18.82C12.7643 19.075 12.8411 19.3228 12.9756 19.5398C13.11 19.7569 13.2976 19.936 13.5206 20.0603C13.7436 20.1846 13.9947 20.2499 14.25 20.25H20.25V23.25H8.17499C7.79065 23.2508 7.40994 23.1757 7.05471 23.029C6.69947 22.8822 6.37671 22.6668 6.10494 22.3951C5.83317 22.1233 5.61775 21.8005 5.47103 21.4453C5.32432 21.09 5.2492 20.7093 5.24999 20.325C5.2483 20.0455 5.28875 19.7674 5.36999 19.5H7.95749C8.49868 19.5 9.02979 19.3536 9.49456 19.0763C9.95932 18.7991 10.3404 18.4012 10.5975 17.925L15 9.75H20.25V12.75H16.5225C16.2424 12.75 15.9679 12.8279 15.7295 12.9749C15.4911 13.1219 15.2983 13.3323 15.1725 13.5825Z" fill="#E3E3E3"/>
<path d="M15 9.75L10.5975 17.925C10.3404 18.4012 9.95933 18.7991 9.49456 19.0763C9.0298 19.3536 8.49868 19.5 7.95749 19.5H5.37C5.44396 19.2523 5.54985 19.0153 5.685 18.795L9.92999 11.895C10.332 11.2395 10.8955 10.6982 11.5665 10.3226C12.2375 9.94708 12.9936 9.74992 13.7625 9.75H15Z" fill="#6995D6"/>
<path d="M40.5 13.5V20.25H31.5V12.75H39.75C39.9489 12.75 40.1397 12.829 40.2803 12.9697C40.421 13.1103 40.5 13.3011 40.5 13.5Z" fill="#6995D6"/>
<path d="M20.25 12.75H31.5V20.25H20.25V12.75Z" fill="#6995D6"/>
<path d="M20.25 12.75V20.25H14.25C13.9947 20.2499 13.7437 20.1846 13.5206 20.0603C13.2976 19.936 13.11 19.7569 12.9756 19.5398C12.8412 19.3228 12.7643 19.075 12.7524 18.82C12.7405 18.565 12.7939 18.3111 12.9075 18.0825L15.1725 13.5825C15.2983 13.3323 15.4911 13.1219 15.7295 12.9749C15.9679 12.8279 16.2424 12.75 16.5225 12.75H20.25Z" fill="#6995D6"/>
<path d="M15.7597 16.725L17.25 12.75H16.5225C16.2424 12.75 15.9679 12.8279 15.7295 12.9749C15.4911 13.1219 15.2983 13.3323 15.1725 13.5825L12.9075 18.0825C12.7939 18.3111 12.7405 18.565 12.7524 18.82C12.7643 19.075 12.8412 19.3228 12.9756 19.5398C13.11 19.7569 13.2976 19.936 13.5206 20.0603C13.7437 20.1846 13.9947 20.2499 14.25 20.25H20.25V18.75H17.1645C16.9223 18.7499 16.6837 18.6912 16.4692 18.5789C16.2546 18.4666 16.0704 18.304 15.9324 18.105C15.7943 17.906 15.7065 17.6765 15.6765 17.4362C15.6464 17.1959 15.675 16.9519 15.7597 16.725Z" fill="#5A80B8"/>
<path d="M22.5 12.75H20.25V20.25H31.5V18.75H28.5C26.9087 18.75 25.3826 18.1179 24.2574 16.9926C23.1321 15.8674 22.5 14.3413 22.5 12.75Z" fill="#5A80B8"/>
<path d="M39 18.75C37.4087 18.75 35.8826 18.1179 34.7574 16.9926C33.6321 15.8674 33 14.3413 33 12.75H31.5V20.25H40.5V18.75H39Z" fill="#5A80B8"/>
<path d="M13.7625 9.75C13.671 9.75 13.581 9.762 13.4903 9.76725L10.545 15.1673C10.111 15.9602 9.48576 16.6321 8.72609 17.1219C7.96641 17.6118 7.09638 17.9041 6.19503 17.9722L5.68878 18.7973C5.55363 19.0176 5.44774 19.2546 5.37378 19.5023H7.96128C8.50247 19.5023 9.03358 19.3559 9.49835 19.0786C9.96311 18.8013 10.3442 18.4035 10.6013 17.9273L15 9.75H13.7625Z" fill="#5A80B8"/>
<path d="M41.25 21.75H34.5C34.1022 21.75 33.7206 21.592 33.4393 21.3107C33.158 21.0294 33 20.6478 33 20.25H31.5V23.25H39.75C40.5456 23.25 41.3087 22.9339 41.8713 22.3713C42.4339 21.8087 42.75 21.0456 42.75 20.25C42.75 20.6478 42.592 21.0294 42.3107 21.3107C42.0294 21.592 41.6478 21.75 41.25 21.75Z" fill="#CCCCCC"/>
<path d="M22.5 20.25H20.25V23.25H31.5V21.75H24C23.6022 21.75 23.2206 21.592 22.9393 21.3107C22.658 21.0294 22.5 20.6478 22.5 20.25Z" fill="#CCCCCC"/>
<path d="M7.49999 19.5H5.36999C5.28875 19.7674 5.2483 20.0455 5.24999 20.325C5.2492 20.7093 5.32432 21.09 5.47103 21.4453C5.61775 21.8005 5.83317 22.1233 6.10494 22.3951C6.37671 22.6668 6.69947 22.8822 7.05471 23.029C7.40994 23.1757 7.79065 23.2508 8.17499 23.25H20.25V21.75H9.74999C9.15325 21.75 8.58096 21.5129 8.159 21.091C7.73704 20.669 7.49999 20.0967 7.49999 19.5Z" fill="#CCCCCC"/>
<path d="M31.5 9.75H33V12.75H31.5V9.75Z" fill="#CCCCCC"/>
<path d="M20.25 9.75H21.75V12.75H20.25V9.75Z" fill="#CCCCCC"/>
<path d="M26.25 27.75H21.75V47.25H23.25V32.25C23.25 31.4544 23.5661 30.6913 24.1287 30.1287C24.6913 29.5661 25.4544 29.25 26.25 29.25V27.75Z" fill="#6D6D6D"/>
<path d="M18 25.5L20.25 27.75H21.75C21.5511 27.75 21.3603 27.671 21.2197 27.5303C21.079 27.3897 21 27.1989 21 27C21 26.8011 21.079 26.6103 21.2197 26.4697C21.3603 26.329 21.5511 26.25 21.75 26.25H29.25L30 25.5H18Z" fill="#212121"/>
<path d="M3 23.25C3 23.6478 3.15804 24.0294 3.43934 24.3107C3.72064 24.592 4.10218 24.75 4.5 24.75H43.5C43.8978 24.75 44.2794 24.592 44.5607 24.3107C44.842 24.0294 45 23.6478 45 23.25H47.25V25.5H0.75V23.25H3Z" fill="#6D6D6D"/>
<path d="M10.9275 18.1027L15.33 9.92775C15.3584 9.87295 15.3721 9.81169 15.3698 9.75H14.574L10.266 17.748C10.0425 18.1654 9.70947 18.5142 9.30279 18.7567C8.8961 18.9993 8.43105 19.1266 7.95751 19.125H5.51101C5.45617 19.2469 5.40908 19.3722 5.37001 19.5C5.33241 19.6227 5.30432 19.748 5.28601 19.875H7.95751C8.56674 19.8767 9.16495 19.7126 9.68811 19.4005C10.2113 19.0883 10.6397 18.6397 10.9275 18.1027Z" fill="#4A4A4A"/>
<path d="M19.875 20.625H20.625V23.25H19.875V20.625Z" fill="#404040"/>
<path d="M19.875 9.75H20.625V12.375H19.875V9.75Z" fill="#404040"/>
<path d="M31.125 9.75H31.875V12.375H31.125V9.75Z" fill="#404040"/>
<path d="M31.125 20.625H31.875V23.25H31.125V20.625Z" fill="#404040"/>
<path d="M39.75 12.375H16.5225C16.1733 12.3762 15.8312 12.4739 15.534 12.6572C15.2367 12.8405 14.9959 13.1023 14.838 13.4138L12.5722 17.9138C12.4298 18.1996 12.3627 18.5171 12.3774 18.8361C12.3921 19.1551 12.488 19.4651 12.656 19.7366C12.8241 20.0082 13.0587 20.2323 13.3376 20.3878C13.6166 20.5433 13.9306 20.6249 14.25 20.625H40.5C40.5994 20.625 40.6948 20.5855 40.7652 20.5152C40.8355 20.4448 40.875 20.3495 40.875 20.25V13.5C40.875 13.2016 40.7565 12.9155 40.5455 12.7045C40.3345 12.4935 40.0484 12.375 39.75 12.375ZM14.25 19.875C14.0586 19.875 13.8703 19.8261 13.703 19.7331C13.5358 19.64 13.395 19.5058 13.2941 19.3432C13.1932 19.1805 13.1354 18.9948 13.1263 18.8036C13.1172 18.6124 13.157 18.422 13.242 18.2505L15.5085 13.7505C15.6035 13.563 15.7485 13.4053 15.9274 13.295C16.1063 13.1846 16.3123 13.1258 16.5225 13.125H19.875V19.875H14.25ZM20.625 19.875V13.125H31.125V19.875H20.625ZM40.125 19.875H31.875V13.125H39.75C39.8494 13.125 39.9448 13.1645 40.0152 13.2348C40.0855 13.3052 40.125 13.4005 40.125 13.5V19.875Z" fill="#4A4A4A"/>
<path d="M30 13.5H26.25C25.8358 13.5 25.5 13.8358 25.5 14.25C25.5 14.6642 25.8358 15 26.25 15H30C30.4142 15 30.75 14.6642 30.75 14.25C30.75 13.8358 30.4142 13.5 30 13.5Z" fill="white"/>
<path d="M8.25 17.25H7.5C7.08579 17.25 6.75 17.5858 6.75 18C6.75 18.4142 7.08579 18.75 7.5 18.75H8.25C8.66421 18.75 9 18.4142 9 18C9 17.5858 8.66421 17.25 8.25 17.25Z" fill="white"/>
<path d="M39 13.5H35.25C34.8358 13.5 34.5 13.8358 34.5 14.25C34.5 14.6642 34.8358 15 35.25 15H39C39.4142 15 39.75 14.6642 39.75 14.25C39.75 13.8358 39.4142 13.5 39 13.5Z" fill="white"/>
</svg>
