<svg width="48" height="48" viewBox="0 0 48 48" fill="none" xmlns="http://www.w3.org/2000/svg">
<path d="M38.25 38.25C43.2206 38.25 47.25 34.2206 47.25 29.25C47.25 24.2794 43.2206 20.25 38.25 20.25C33.2794 20.25 29.25 24.2794 29.25 29.25C29.25 34.2206 33.2794 38.25 38.25 38.25Z" fill="#363636"/>
<path d="M38.25 36.75C42.3921 36.75 45.75 33.3921 45.75 29.25C45.75 25.1079 42.3921 21.75 38.25 21.75C34.1079 21.75 30.75 25.1079 30.75 29.25C30.75 33.3921 34.1079 36.75 38.25 36.75Z" fill="#F0F0F0"/>
<path d="M38.25 31.5C39.4926 31.5 40.5 30.4926 40.5 29.25C40.5 28.0074 39.4926 27 38.25 27C37.0074 27 36 28.0074 36 29.25C36 30.4926 37.0074 31.5 38.25 31.5Z" fill="#4A4A4A"/>
<path d="M38.889 31.3965L40.8053 36.294C40.923 36.2512 41.0423 36.213 41.157 36.165L39.2385 31.2622C39.126 31.3167 39.0091 31.3616 38.889 31.3965Z" fill="#8F8F8F"/>
<path d="M38.25 31.5C38.1855 31.5 38.1255 31.4865 38.0625 31.4812V36.7402C38.1255 36.7402 38.187 36.75 38.25 36.75C38.313 36.75 38.3745 36.7417 38.4375 36.7402V31.4812C38.3745 31.4865 38.3145 31.5 38.25 31.5Z" fill="#8F8F8F"/>
<path d="M37.2615 31.2622L35.343 36.165C35.4577 36.213 35.577 36.2512 35.6947 36.294L37.611 31.3965C37.4909 31.3616 37.374 31.3167 37.2615 31.2622Z" fill="#8F8F8F"/>
<path d="M36 29.25C36 29.1855 36.0135 29.1255 36.0188 29.0625H30.7598C30.7598 29.1255 30.75 29.187 30.75 29.25C30.75 29.313 30.7583 29.3745 30.7598 29.4375H36.0188C36.0135 29.3745 36 29.3145 36 29.25Z" fill="#8F8F8F"/>
<path d="M36.1035 29.889L31.206 31.8053C31.2487 31.923 31.287 32.0423 31.335 32.157L36.2377 30.2385C36.1834 30.126 36.1385 30.0091 36.1035 29.889Z" fill="#8F8F8F"/>
<path d="M36.5392 30.696L32.8207 34.4145C32.907 34.5053 32.9947 34.593 33.0855 34.6793L36.804 30.9608C36.7084 30.8802 36.6198 30.7916 36.5392 30.696Z" fill="#8F8F8F"/>
<path d="M45.7403 29.0625H40.4813C40.4865 29.1255 40.5 29.1855 40.5 29.25C40.5 29.3145 40.4865 29.3745 40.4813 29.4375H45.7403C45.7403 29.3745 45.75 29.313 45.75 29.25C45.75 29.187 45.7418 29.1255 45.7403 29.0625Z" fill="#8F8F8F"/>
<path d="M39.696 30.9608L43.4145 34.6793C43.5053 34.593 43.593 34.5053 43.6793 34.4145L39.9608 30.696C39.8802 30.7916 39.7916 30.8802 39.696 30.9608Z" fill="#8F8F8F"/>
<path d="M40.2622 30.2385L45.165 32.157C45.213 32.0423 45.2512 31.923 45.294 31.8053L40.3965 29.889C40.3616 30.0091 40.3167 30.126 40.2622 30.2385Z" fill="#8F8F8F"/>
<path d="M39.9608 27.8041L43.6793 24.0855C43.593 23.9948 43.5053 23.9071 43.4145 23.8208L39.696 27.5393C39.7916 27.6199 39.8802 27.7085 39.9608 27.8041Z" fill="#8F8F8F"/>
<path d="M38.25 27C38.3145 27 38.3745 27.0135 38.4375 27.0188V21.7598C38.3745 21.7598 38.313 21.75 38.25 21.75C38.187 21.75 38.1255 21.7583 38.0625 21.7598V27.0188C38.1255 27.0135 38.1855 27 38.25 27Z" fill="#8F8F8F"/>
<path d="M39.2385 27.2378L41.157 22.3351C41.0423 22.2871 40.923 22.2488 40.8053 22.2061L38.889 27.1036C39.0091 27.1384 39.126 27.1833 39.2385 27.2378Z" fill="#8F8F8F"/>
<path d="M36.2377 28.2615L31.335 26.343C31.287 26.4578 31.2487 26.577 31.206 26.6948L36.1035 28.611C36.1385 28.491 36.1834 28.3741 36.2377 28.2615Z" fill="#8F8F8F"/>
<path d="M40.3965 28.611L45.294 26.6948C45.2512 26.577 45.213 26.4578 45.165 26.343L40.2622 28.2615C40.3167 28.374 40.3616 28.491 40.3965 28.611Z" fill="#8F8F8F"/>
<path d="M37.611 27.1036L35.6947 22.2061C35.577 22.2488 35.4577 22.2871 35.343 22.3351L37.2615 27.2378C37.374 27.1833 37.4909 27.1384 37.611 27.1036Z" fill="#8F8F8F"/>
<path d="M36.804 27.5393L33.0855 23.8208C32.9947 23.9071 32.907 23.9948 32.8207 24.0855L36.5392 27.8041C36.6198 27.7085 36.7084 27.6199 36.804 27.5393Z" fill="#8F8F8F"/>
<path d="M9.75 38.25C14.7206 38.25 18.75 34.2206 18.75 29.25C18.75 24.2794 14.7206 20.25 9.75 20.25C4.77944 20.25 0.75 24.2794 0.75 29.25C0.75 34.2206 4.77944 38.25 9.75 38.25Z" fill="#363636"/>
<path d="M9.75 36.75C13.8921 36.75 17.25 33.3921 17.25 29.25C17.25 25.1079 13.8921 21.75 9.75 21.75C5.60786 21.75 2.25 25.1079 2.25 29.25C2.25 33.3921 5.60786 36.75 9.75 36.75Z" fill="#F0F0F0"/>
<path d="M9.75 31.5C10.9926 31.5 12 30.4926 12 29.25C12 28.0074 10.9926 27 9.75 27C8.50736 27 7.5 28.0074 7.5 29.25C7.5 30.4926 8.50736 31.5 9.75 31.5Z" fill="#4A4A4A"/>
<path d="M10.389 31.3965L12.3053 36.294C12.423 36.2512 12.5423 36.213 12.657 36.165L10.7385 31.2622C10.626 31.3167 10.5091 31.3616 10.389 31.3965Z" fill="#8F8F8F"/>
<path d="M9.75 31.5C9.6855 31.5 9.6255 31.4865 9.5625 31.4812V36.7402C9.6255 36.7402 9.687 36.75 9.75 36.75C9.813 36.75 9.8745 36.7417 9.9375 36.7402V31.4812C9.8745 31.4865 9.8145 31.5 9.75 31.5Z" fill="#8F8F8F"/>
<path d="M8.76149 31.2622L6.84299 36.165C6.95774 36.213 7.07699 36.2512 7.19474 36.294L9.11099 31.3965C8.99093 31.3616 8.87402 31.3167 8.76149 31.2622Z" fill="#8F8F8F"/>
<path d="M7.5 29.25C7.5 29.1855 7.5135 29.1255 7.51875 29.0625H2.25975C2.25975 29.1255 2.25 29.187 2.25 29.25C2.25 29.313 2.25825 29.3745 2.25975 29.4375H7.51875C7.5135 29.3745 7.5 29.3145 7.5 29.25Z" fill="#8F8F8F"/>
<path d="M7.60349 29.889L2.70599 31.8053C2.74874 31.923 2.78699 32.0423 2.83499 32.157L7.73774 30.2385C7.68339 30.126 7.63849 30.0091 7.60349 29.889Z" fill="#8F8F8F"/>
<path d="M8.03924 30.696L4.32074 34.4145C4.40699 34.5053 4.49474 34.593 4.58549 34.6793L8.30399 30.9608C8.2084 30.8802 8.11983 30.7916 8.03924 30.696Z" fill="#8F8F8F"/>
<path d="M17.2403 29.0625H11.9813C11.9865 29.1255 12 29.1855 12 29.25C12 29.3145 11.9865 29.3745 11.9813 29.4375H17.2403C17.2403 29.3745 17.25 29.313 17.25 29.25C17.25 29.187 17.2418 29.1255 17.2403 29.0625Z" fill="#8F8F8F"/>
<path d="M11.196 30.9608L14.9145 34.6793C15.0053 34.593 15.093 34.5053 15.1793 34.4145L11.4608 30.696C11.3802 30.7916 11.2916 30.8802 11.196 30.9608Z" fill="#8F8F8F"/>
<path d="M11.7622 30.2385L16.665 32.157C16.713 32.0423 16.7512 31.923 16.794 31.8053L11.8965 29.889C11.8616 30.0091 11.8167 30.126 11.7622 30.2385Z" fill="#8F8F8F"/>
<path d="M11.4608 27.8041L15.1793 24.0855C15.093 23.9948 15.0053 23.9071 14.9145 23.8208L11.196 27.5393C11.2916 27.6199 11.3802 27.7085 11.4608 27.8041Z" fill="#8F8F8F"/>
<path d="M9.75 27C9.8145 27 9.8745 27.0135 9.9375 27.0188V21.7598C9.8745 21.7598 9.813 21.75 9.75 21.75C9.687 21.75 9.6255 21.7583 9.5625 21.7598V27.0188C9.6255 27.0135 9.6855 27 9.75 27Z" fill="#8F8F8F"/>
<path d="M10.7385 27.2378L12.657 22.3351C12.5423 22.2871 12.423 22.2488 12.3053 22.2061L10.389 27.1036C10.5091 27.1384 10.626 27.1833 10.7385 27.2378Z" fill="#8F8F8F"/>
<path d="M7.73774 28.2615L2.83499 26.343C2.78699 26.4578 2.74874 26.577 2.70599 26.6948L7.60349 28.611C7.63849 28.491 7.68339 28.3741 7.73774 28.2615Z" fill="#8F8F8F"/>
<path d="M11.8965 28.611L16.794 26.6948C16.7512 26.577 16.713 26.4578 16.665 26.343L11.7622 28.2615C11.8167 28.374 11.8616 28.491 11.8965 28.611Z" fill="#8F8F8F"/>
<path d="M9.11099 27.1036L7.19474 22.2061C7.07699 22.2488 6.95774 22.2871 6.84299 22.3351L8.76149 27.2378C8.87402 27.1833 8.99093 27.1384 9.11099 27.1036Z" fill="#8F8F8F"/>
<path d="M8.30399 27.5393L4.58549 23.8208C4.49474 23.9071 4.40699 23.9948 4.32074 24.0855L8.03924 27.8041C8.11983 27.7085 8.2084 27.6199 8.30399 27.5393Z" fill="#8F8F8F"/>
<path d="M32.1375 12.345L28.3875 11.4075C28.1887 11.3574 28.0151 11.2365 27.8991 11.0675C27.7832 10.8985 27.7329 10.6929 27.7578 10.4894C27.7826 10.286 27.8809 10.0986 28.0341 9.96243C28.1874 9.82629 28.385 9.75075 28.59 9.75H35.535C35.7419 9.74974 35.9454 9.80237 36.1262 9.90289C36.307 10.0034 36.4591 10.1485 36.568 10.3243C36.677 10.5002 36.7392 10.7009 36.7487 10.9076C36.7583 11.1142 36.7148 11.3199 36.6225 11.505L36.3375 12.0825C36.2344 12.2824 36.0786 12.4503 35.8869 12.568C35.6952 12.6856 35.4749 12.7486 35.25 12.75H33.9C33.8014 12.7486 33.7033 12.736 33.6075 12.7125L32.1375 12.345Z" fill="#479DAD"/>
<path d="M17.25 14.25H15L12.2325 20.6025L9.4275 27.03L9.09 27.8025C9.03007 27.9233 8.995 28.0549 8.98688 28.1895C8.97875 28.3241 8.99773 28.4589 9.04269 28.586C9.08765 28.7132 9.15768 28.83 9.24862 28.9295C9.33956 29.0291 9.44956 29.1093 9.5721 29.1656C9.69465 29.2218 9.82724 29.2529 9.96202 29.257C10.0968 29.261 10.231 29.238 10.3567 29.1892C10.4824 29.1404 10.597 29.0669 10.6938 28.973C10.7906 28.8791 10.8675 28.7667 10.92 28.6425L11.3475 27.6675L14.115 21.375L15.6225 17.9475L16.41 16.1625L30 18.75L30.0825 18.7725L30.585 17.2125L17.25 14.25Z" fill="#479DAD"/>
<path d="M27.165 27.8925L26.25 30.75L24.345 28.4325C24.8813 27.9903 25.5549 27.749 26.25 27.75C26.5604 27.7516 26.8688 27.7996 27.165 27.8925Z" fill="#4A4A4A"/>
<path d="M29.2425 30.5625L26.25 30.75L27.165 27.8925C27.7401 28.0762 28.2461 28.4295 28.6169 28.906C28.9876 29.3825 29.2057 29.9599 29.2425 30.5625Z" fill="#4A4A4A"/>
<path d="M29.2425 30.5625C29.2487 30.6248 29.2512 30.6874 29.25 30.75C29.25 31.2557 29.1222 31.7532 28.8784 32.1963C28.6346 32.6394 28.2827 33.0136 27.8555 33.2843C27.4283 33.5549 26.9396 33.7132 26.4349 33.7443C25.9301 33.7755 25.4257 33.6786 24.9684 33.4625C24.5112 33.2465 24.116 32.9183 23.8195 32.5086C23.523 32.0989 23.335 31.6209 23.2728 31.119C23.2106 30.6171 23.2763 30.1077 23.4637 29.638C23.6512 29.1683 23.9543 28.7536 24.345 28.4325L26.25 30.75L29.2425 30.5625Z" fill="#4A4A4A"/>
<path d="M38.25 27C38.6571 26.9983 39.057 27.1071 39.4071 27.3148C39.7573 27.5225 40.0445 27.8212 40.2382 28.1793C40.4319 28.5373 40.5249 28.9412 40.5072 29.3479C40.4895 29.7546 40.3618 30.1489 40.1377 30.4887C39.9135 30.8285 39.6014 31.1012 39.2346 31.2777C38.8677 31.4541 38.4598 31.5277 38.0544 31.4907C37.6491 31.4536 37.2613 31.3072 36.9325 31.0672C36.6038 30.8271 36.3463 30.5024 36.1875 30.1275L37.1625 30.0675C37.3754 30.0545 37.5806 29.983 37.7554 29.8608C37.9303 29.7386 38.0679 29.5704 38.1533 29.3749C38.2386 29.1794 38.2683 28.9642 38.239 28.7529C38.2098 28.5416 38.1227 28.3425 37.9875 28.1775L37.275 27.3075L37.5 27.1275C37.741 27.0428 37.9946 26.9996 38.25 27Z" fill="#4A4A4A"/>
<path d="M38.565 27.705L32.0775 19.7775C32.0088 19.6903 31.921 19.62 31.8209 19.5719C31.7208 19.5238 31.611 19.4992 31.5 19.5H30.6375L32.865 12.525L32.1375 12.345L31.41 12.165L29.85 17.0475L29.3475 18.6225L25.9575 29.2125L16.2825 17.4675L15.975 17.16L15.6225 17.9475L15.315 18.6525L25.6725 31.2225C25.7423 31.3086 25.8303 31.3781 25.9301 31.4261C26.03 31.474 26.1392 31.4993 26.25 31.5H26.295L37.2075 30.8175C37.6924 30.7872 38.1476 30.5734 38.4805 30.2196C38.8135 29.8657 38.9992 29.3984 39 28.9125C39.0037 28.471 38.8494 28.0427 38.565 27.705ZM37.1175 29.3175L27.3 29.9325L30.1575 21H31.1475L37.41 28.6575C37.4707 28.7284 37.5028 28.8193 37.5 28.9125C37.5005 29.0163 37.4611 29.1162 37.3899 29.1916C37.3186 29.2671 37.2211 29.3121 37.1175 29.3175Z" fill="#33717D"/>
<path d="M15.84 14.25L15.81 14.19L16.4625 12.24C16.4997 12.1272 16.5096 12.0072 16.4913 11.8899C16.4731 11.7725 16.4272 11.6612 16.3575 11.565C16.2892 11.4673 16.1983 11.3876 16.0925 11.3327C15.9867 11.2779 15.8692 11.2495 15.75 11.25H12.975L11.25 10.1025L10.9125 9.8775C10.7911 9.79411 10.6473 9.74964 10.5 9.75H9.75C8.95435 9.75 8.19129 10.0661 7.62868 10.6287C7.06607 11.1913 6.75 11.9544 6.75 12.75C6.75 13.5457 7.06607 14.3087 7.62868 14.8713C8.19129 15.4339 8.95435 15.75 9.75 15.75H12.75C12.9489 15.75 13.1397 15.671 13.2803 15.5303C13.421 15.3897 13.5 15.1989 13.5 15C13.5 14.8011 13.421 14.6103 13.2803 14.4697C13.1397 14.329 12.9489 14.25 12.75 14.25H9.75C9.35309 14.2471 8.97326 14.0881 8.69259 13.8074C8.41192 13.5267 8.25294 13.1469 8.25 12.75C8.25119 12.3525 8.4096 11.9717 8.69065 11.6907C8.9717 11.4096 9.35254 11.2512 9.75 11.25H10.275L12.3375 12.6225C12.4589 12.7059 12.6027 12.7504 12.75 12.75H14.7075L14.2875 14.01C14.2268 14.201 14.2429 14.4082 14.3325 14.5875L14.6108 15.144L15 14.25H15.84Z" fill="#33717D"/>
<path d="M11.25 8.25V10.1025L10.9125 9.8775C10.7911 9.79411 10.6473 9.74964 10.5 9.75H9.75V8.25C9.75 8.05109 9.82902 7.86032 9.96967 7.71967C10.1103 7.57902 10.3011 7.5 10.5 7.5C10.6989 7.5 10.8897 7.57902 11.0303 7.71967C11.171 7.86032 11.25 8.05109 11.25 8.25Z" fill="#4A4A4A"/>
<path d="M34.5615 11.562L30.7208 10.794C30.4362 10.7363 30.1695 10.6115 29.9429 10.4299C29.7163 10.2483 29.5363 10.0152 29.418 9.75H28.593C28.388 9.75075 28.1904 9.82628 28.0371 9.96243C27.8839 10.0986 27.7856 10.286 27.7608 10.4894C27.7359 10.6929 27.7862 10.8985 27.9021 11.0675C28.0181 11.2365 28.1917 11.3574 28.3905 11.4075L32.1405 12.345L33.6105 12.7125C33.7063 12.736 33.8044 12.7486 33.903 12.75H35.25C35.4749 12.7486 35.6952 12.6856 35.8869 12.568C36.0786 12.4503 36.2344 12.2824 36.3375 12.0825L36.6225 11.505C36.7073 11.3372 36.7514 11.1519 36.7514 10.9639C36.7514 10.7759 36.7073 10.5905 36.6225 10.4228C36.4693 10.8258 36.1781 11.1614 35.8007 11.37C35.4234 11.5785 34.9843 11.6466 34.5615 11.562Z" fill="#3B8391"/>
</svg>
