<svg width="18" height="18" viewBox="0 0 18 18" fill="none" xmlns="http://www.w3.org/2000/svg">
<path fill-rule="evenodd" clip-rule="evenodd" d="M9 1.125C6.98071 1.125 5.34375 2.76196 5.34375 4.78125C5.34375 6.80054 6.98071 8.4375 9 8.4375C11.0193 8.4375 12.6563 6.80054 12.6563 4.78125C12.6563 2.76196 11.0193 1.125 9 1.125ZM4.21875 4.78125C4.21875 2.14064 6.35939 0 9 0C11.6406 0 13.7813 2.14064 13.7813 4.78125C13.7813 7.42186 11.6406 9.5625 9 9.5625C6.35939 9.5625 4.21875 7.42186 4.21875 4.78125ZM9 13.3125C5.89508 13.3125 3.06592 14.6648 0.971776 16.8859C0.758662 17.1119 0.402661 17.1224 0.176625 16.9093C-0.0494111 16.6962 -0.0598866 16.3402 0.153227 16.1141C2.43869 13.6901 5.55557 12.1875 9 12.1875C12.4444 12.1875 15.5613 13.6901 17.8468 16.1141C18.0599 16.3402 18.0494 16.6962 17.8234 16.9093C17.5973 17.1224 17.2413 17.1119 17.0282 16.8859C14.9341 14.6648 12.1049 13.3125 9 13.3125Z" fill="white"/>
</svg>
